<svg width="162" height="32" viewBox="0 0 162 32" fill="none" xmlns="http://www.w3.org/2000/svg">
<path d="M21.2322 0H6.76775C4.97276 0.00370008 3.25244 0.718889 1.98384 1.9888C0.715245 3.25871 0.0018467 4.97975 0 6.77475V25.2253C0.0018467 27.0203 0.715245 28.7413 1.98384 30.0112C3.25244 31.2811 4.97276 31.9963 6.76775 32H21.2322C23.0272 31.9963 24.7476 31.2811 26.0162 30.0112C27.2847 28.7413 27.9982 27.0203 28 25.2253V6.77475C27.9982 4.97975 27.2847 3.25871 26.0162 1.9888C24.7476 0.718889 23.0272 0.00370008 21.2322 0ZM12.2561 27.5744H5.76797C5.38068 27.5482 5.01779 27.3758 4.75274 27.0922C4.48768 26.8086 4.34024 26.4349 4.34024 26.0468C4.34024 25.6586 4.48768 25.2849 4.75274 25.0013C5.01779 24.7177 5.38068 24.5453 5.76797 24.5191H12.291C12.5003 24.505 12.7103 24.5339 12.9079 24.6043C13.1056 24.6747 13.2866 24.7849 13.4399 24.9281C13.5932 25.0714 13.7154 25.2446 13.7989 25.437C13.8825 25.6294 13.9256 25.837 13.9256 26.0468C13.9256 26.2565 13.8825 26.4641 13.7989 26.6565C13.7154 26.8489 13.5932 27.0222 13.4399 27.1654C13.2866 27.3087 13.1056 27.4189 12.9079 27.4892C12.7103 27.5596 12.5003 27.5886 12.291 27.5744H12.2561ZM18.7791 22.5825H5.76797C5.38068 22.5563 5.01779 22.3839 4.75274 22.1003C4.48768 21.8167 4.34024 21.443 4.34024 21.0548C4.34024 20.6667 4.48768 20.293 4.75274 20.0094C5.01779 19.7258 5.38068 19.5534 5.76797 19.5272H18.842C19.3056 19.5272 19.7502 19.3431 20.078 19.0153C20.4058 18.6875 20.5899 18.2429 20.5899 17.7793C20.5899 17.3158 20.4058 16.8712 20.078 16.5434C19.7502 16.2156 19.3056 16.0315 18.842 16.0315H5.76797C5.38068 16.0053 5.01779 15.8329 4.75274 15.5493C4.48768 15.2657 4.34024 14.892 4.34024 14.5038C4.34024 14.1157 4.48768 13.742 4.75274 13.4584C5.01779 13.1748 5.38068 13.0024 5.76797 12.9762H18.842C20.1122 12.9762 21.3303 13.4808 22.2285 14.3789C23.1266 15.2771 23.6312 16.4952 23.6312 17.7654C23.6312 19.0355 23.1266 20.2537 22.2285 21.1518C21.3303 22.05 20.1122 22.5545 18.842 22.5545L18.7791 22.5825Z" fill="#0041EB"/>
<path d="M41.2 22H44.2V17.3H46.9C49.94 17.3 51.96 15.48 51.96 12.66C51.96 9.82 49.94 8 46.9 8H41.2V22ZM46.62 10.5C48.02 10.5 48.92 11.32 48.92 12.66C48.92 13.98 48.02 14.8 46.62 14.8H44.2V10.5H46.62ZM59.0014 11.72C57.4014 11.72 56.6014 12.34 56.0414 13.26L55.7814 11.72H53.2214V22H56.0414V16.96C56.0414 15.4 56.6814 14.28 58.3614 14.28H59.4814V11.72H59.0014ZM65.2289 22.12C68.5089 22.12 70.6489 20.04 70.6489 16.86C70.6489 13.7 68.5089 11.6 65.2289 11.6C61.9489 11.6 59.8089 13.7 59.8089 16.86C59.8089 20.02 61.9489 22.12 65.2289 22.12ZM65.2289 19.82C63.6489 19.82 62.6889 18.6 62.6889 16.86C62.6889 15.12 63.6489 13.9 65.2289 13.9C66.8089 13.9 67.7889 15.12 67.7889 16.86C67.7889 18.6 66.8089 19.82 65.2289 19.82ZM79.4611 13C78.8011 12.16 77.7811 11.6 76.3611 11.6C73.6211 11.6 71.6011 13.66 71.6011 16.84C71.6011 20.1 73.6211 22.12 76.3811 22.12C77.8611 22.12 78.8611 21.46 79.5411 20.58L79.8211 22H82.2811V8H79.4611V13ZM77.0011 19.82C75.4611 19.82 74.4811 18.62 74.4811 16.86C74.4811 15.1 75.4611 13.9 77.0011 13.9C78.5411 13.9 79.5011 15.12 79.5011 16.88C79.5011 18.62 78.5411 19.82 77.0011 19.82ZM90.9072 16.86C90.9072 18.76 90.0872 19.78 88.6872 19.78C87.2872 19.78 86.6872 18.88 86.6872 17.04V11.72H83.8672V17.42C83.8672 21.06 85.8272 22.12 87.9472 22.12C89.4072 22.12 90.3072 21.56 90.9672 20.76L91.2272 22H93.7272V11.72H90.9072V16.86ZM100.328 22.12C103.128 22.12 104.988 20.58 105.388 18.12H102.428C102.228 19.16 101.488 19.82 100.388 19.82C98.9078 19.82 97.9678 18.62 97.9678 16.86C97.9678 15.12 98.9078 13.9 100.388 13.9C101.488 13.9 102.188 14.54 102.428 15.56H105.368C104.968 13.12 103.228 11.6 100.428 11.6C97.1678 11.6 95.0878 13.68 95.0878 16.86C95.0878 20.1 97.0678 22.12 100.328 22.12ZM107.415 19.06C107.415 21.02 108.395 22 110.355 22H112.655V19.62H111.255C110.515 19.62 110.235 19.32 110.235 18.6V14.1H112.595V11.72H110.235V8.84H107.415V11.72H105.715V14.1H107.415V19.06ZM113.18 10.58H117.22V22H120.22V10.58H124.28V8H113.18V10.58ZM131.631 16.86C131.631 18.76 130.811 19.78 129.411 19.78C128.011 19.78 127.411 18.88 127.411 17.04V11.72H124.591V17.42C124.591 21.06 126.551 22.12 128.671 22.12C130.131 22.12 131.031 21.56 131.691 20.76L131.951 22H134.451V11.72H131.631V16.86ZM137.029 19.06C137.029 21.02 138.009 22 139.969 22H142.269V19.62H140.869C140.129 19.62 139.849 19.32 139.849 18.6V14.1H142.209V11.72H139.849V8.84H137.029V11.72H135.329V14.1H137.029V19.06ZM148.238 22.12C151.518 22.12 153.658 20.04 153.658 16.86C153.658 13.7 151.518 11.6 148.238 11.6C144.958 11.6 142.818 13.7 142.818 16.86C142.818 20.02 144.958 22.12 148.238 22.12ZM148.238 19.82C146.658 19.82 145.698 18.6 145.698 16.86C145.698 15.12 146.658 13.9 148.238 13.9C149.818 13.9 150.798 15.12 150.798 16.86C150.798 18.6 149.818 19.82 148.238 19.82ZM160.79 11.72C159.19 11.72 158.39 12.34 157.83 13.26L157.57 11.72H155.01V22H157.83V16.96C157.83 15.4 158.47 14.28 160.15 14.28H161.27V11.72H160.79Z" fill="#1C2A4B"/>
</svg>
